<svg xmlns="http://www.w3.org/2000/svg" xmlns:xlink="http://www.w3.org/1999/xlink" viewBox="0 0 196.16 288.44"><defs><style>.cls-1{fill:none;}.cls-2{clip-path:url(#clip-path);}.cls-3{fill:#f8b88d;stroke:#52565e;stroke-miterlimit:10;}.cls-4,.cls-6{fill:#fff;}.cls-5,.cls-7,.cls-8{fill:#535760;}.cls-5,.cls-6{stroke:#535760;stroke-width:6px;}.cls-5{stroke-linecap:round;stroke-linejoin:round;}.cls-8{font-size:36px;font-family:Menco-Black, Menco;font-weight:800;}</style><clipPath id="clip-path" transform="translate(15.88 15.87)"><rect class="cls-1" width="164.41" height="256.71" rx="11.28"/></clipPath></defs><g id="Layer_2" data-name="Layer 2"><g id="Layer_13" data-name="Layer 13"><g class="cls-2"><rect id="Rectangle_1070" data-name="Rectangle 1070" class="cls-3" x="6.4" y="7.41" width="183.36" height="273.63"/><path class="cls-4" d="M146.62,12.13a5.68,5.68,0,0,1,5.67,5.67V238.9a5.68,5.68,0,0,1-5.67,5.67H17.79a5.68,5.68,0,0,1-5.67-5.67V17.8a5.68,5.68,0,0,1,5.67-5.67H146.62m0-28H17.79A33.72,33.72,0,0,0-15.88,17.8V238.9a33.71,33.71,0,0,0,33.67,33.67H146.62a33.71,33.71,0,0,0,33.67-33.67V17.8a33.72,33.72,0,0,0-33.67-33.67Z" transform="translate(15.88 15.87)"/><polyline class="cls-5" points="117.18 204.5 140.15 272.58 56.01 272.57 47.29 246.84"/><polygon class="cls-5" points="140.15 272.58 143.01 281.04 58.87 281.03 56.01 272.58 140.15 272.58"/><polyline class="cls-5" points="78.99 83.95 56.01 15.86 140.16 15.87 148.87 41.6"/><polygon class="cls-5" points="56.01 15.86 53.16 7.41 137.3 7.41 140.16 15.87 56.01 15.86"/><rect id="Rectangle_1073" data-name="Rectangle 1073" class="cls-6" x="35.36" y="178.82" width="62.01" height="62.01" rx="6.6" transform="translate(-136.39 250.81) rotate(-79)"/><rect id="Rectangle_1074" data-name="Rectangle 1074" class="cls-4" x="67.08" y="113.21" width="62.01" height="62.01" rx="6.6"/><rect id="Rectangle_1075" data-name="Rectangle 1075" class="cls-6" x="67.03" y="15.87" width="62.01" height="62.01" rx="6.6" transform="translate(49.19 150.04) rotate(-79)"/><circle id="Ellipse_916" data-name="Ellipse 916" class="cls-7" cx="131.48" cy="50.91" r="5.28"/><circle id="Ellipse_921" data-name="Ellipse 921" class="cls-7" cx="96.36" cy="74.59" r="5.28"/><circle id="Ellipse_923" data-name="Ellipse 923" class="cls-7" cx="102.08" cy="45.19" r="5.28"/><circle id="Ellipse_924" data-name="Ellipse 924" class="cls-7" cx="125.76" cy="80.31" r="5.28"/><circle id="Ellipse_925" data-name="Ellipse 925" class="cls-7" cx="113.92" cy="62.75" r="5.28"/><circle id="Ellipse_916-2" data-name="Ellipse 916" class="cls-7" cx="113.06" cy="129.25" r="5.28"/><circle id="Ellipse_921-2" data-name="Ellipse 921" class="cls-7" cx="83.11" cy="159.2" r="5.28"/><circle id="Ellipse_925-2" data-name="Ellipse 925" class="cls-7" cx="98.08" cy="144.22" r="5.28"/><circle id="Ellipse_915" data-name="Ellipse 915" class="cls-7" cx="64.69" cy="237.54" r="5.28"/><circle id="Ellipse_916-3" data-name="Ellipse 916" class="cls-7" cx="99.81" cy="213.85" r="5.28"/><text class="cls-8" transform="translate(43.29 69.93)"> </text><text class="cls-8" transform="translate(152.87 218.52) rotate(180)"> </text></g></g></g></svg>