<svg xmlns="http://www.w3.org/2000/svg" xmlns:xlink="http://www.w3.org/1999/xlink" viewBox="0 0 196.16 288.44"><defs><style>.cls-1,.cls-9{fill:none;}.cls-2{clip-path:url(#clip-path);}.cls-3{fill:#d7aed2;stroke:#52565e;stroke-miterlimit:10;}.cls-11,.cls-4,.cls-6{fill:#fff;}.cls-10,.cls-5,.cls-7{fill:#535760;}.cls-5,.cls-6,.cls-9{stroke:#535760;}.cls-5,.cls-9{stroke-linecap:round;stroke-linejoin:round;}.cls-5,.cls-6{stroke-width:6px;}.cls-8{fill:#ffdf00;}.cls-10,.cls-11,.cls-9{font-size:36px;font-family:Menco-Black, Menco;font-weight:800;}.cls-9{stroke-width:12px;}</style><clipPath id="clip-path" transform="translate(15.88 15.87)"><rect class="cls-1" width="164.41" height="256.71" rx="11.28"/></clipPath></defs><g id="Layer_2" data-name="Layer 2"><g id="Layer_13" data-name="Layer 13"><g class="cls-2"><rect id="Rectangle_1070" data-name="Rectangle 1070" class="cls-3" x="6.4" y="7.41" width="183.36" height="273.63"/><path class="cls-4" d="M146.62,12.13a5.68,5.68,0,0,1,5.67,5.67V238.9a5.68,5.68,0,0,1-5.67,5.67H17.79a5.68,5.68,0,0,1-5.67-5.67V17.8a5.68,5.68,0,0,1,5.67-5.67H146.62m0-28H17.79A33.72,33.72,0,0,0-15.88,17.8V238.9a33.71,33.71,0,0,0,33.67,33.67H146.62a33.71,33.71,0,0,0,33.67-33.67V17.8a33.72,33.72,0,0,0-33.67-33.67Z" transform="translate(15.88 15.87)"/><polyline class="cls-5" points="117.18 204.5 140.15 272.58 56.01 272.58 47.29 246.84"/><polygon class="cls-5" points="140.15 272.58 143.01 281.04 58.87 281.03 56.01 272.58 140.15 272.58"/><polyline class="cls-5" points="78.99 83.95 56.01 15.87 140.16 15.87 148.87 41.6"/><polygon class="cls-5" points="56.01 15.86 53.16 7.41 137.3 7.41 140.16 15.87 56.01 15.86"/><rect id="Rectangle_1073" data-name="Rectangle 1073" class="cls-6" x="35.36" y="178.82" width="62.01" height="62.01" rx="6.6" transform="translate(-136.39 250.81) rotate(-79)"/><rect id="Rectangle_1074" data-name="Rectangle 1074" class="cls-4" x="67.08" y="113.22" width="62.01" height="62.01" rx="6.6"/><rect id="Rectangle_1075" data-name="Rectangle 1075" class="cls-6" x="67.03" y="15.87" width="62.01" height="62.01" rx="6.6" transform="translate(49.19 150.04) rotate(-79)"/><circle id="Ellipse_916" data-name="Ellipse 916" class="cls-7" cx="131.48" cy="50.91" r="5.28"/><circle id="Ellipse_921" data-name="Ellipse 921" class="cls-7" cx="96.36" cy="74.59" r="5.28"/><circle id="Ellipse_923" data-name="Ellipse 923" class="cls-7" cx="102.08" cy="45.19" r="5.28"/><circle id="Ellipse_924" data-name="Ellipse 924" class="cls-7" cx="125.76" cy="80.31" r="5.28"/><circle id="Ellipse_925" data-name="Ellipse 925" class="cls-7" cx="113.92" cy="62.75" r="5.28"/><circle id="Ellipse_916-2" data-name="Ellipse 916" class="cls-7" cx="113.06" cy="129.25" r="5.28"/><circle id="Ellipse_921-2" data-name="Ellipse 921" class="cls-7" cx="83.11" cy="159.2" r="5.28"/><circle id="Ellipse_923-2" data-name="Ellipse 923" class="cls-7" cx="83.11" cy="129.25" r="5.28"/><circle id="Ellipse_924-2" data-name="Ellipse 924" class="cls-7" cx="113.06" cy="159.2" r="5.28"/><circle id="Ellipse_925-2" data-name="Ellipse 925" class="cls-7" cx="98.08" cy="144.23" r="5.28"/><circle id="Ellipse_925-3" data-name="Ellipse 925" class="cls-7" cx="82.25" cy="225.7" r="5.28"/><path class="cls-8" d="M39.44,181.83A4.72,4.72,0,0,1,36,180.32a4.64,4.64,0,0,1-1.25-3.53l.45-6.5-5.1-4.06A4.71,4.71,0,0,1,31.88,158l6.32-1.58,2.28-6.1a4.72,4.72,0,0,1,8.41-.85L52.34,155l6.52.29a4.7,4.7,0,0,1,3.4,7.72l-4.19,5,1.74,6.28a4.67,4.67,0,0,1-.78,4.1,4.74,4.74,0,0,1-3.75,1.87,4.64,4.64,0,0,1-1.76-.35l-6.05-2.43L42,181A4.67,4.67,0,0,1,39.44,181.83Z" transform="translate(15.88 15.87)"/><path class="cls-7" d="M44.9,150.24a1.68,1.68,0,0,1,1.44.8l4.3,6.86,8.08.35A1.71,1.71,0,0,1,60,161.06l-5.2,6.2,2.16,7.8a1.71,1.71,0,0,1-1.64,2.17,1.63,1.63,0,0,1-.64-.13l-7.51-3-6.75,4.47a1.67,1.67,0,0,1-.94.29A1.72,1.72,0,0,1,37.73,177l.56-8.08-6.33-5a1.7,1.7,0,0,1,.65-3l7.85-2,2.84-7.58a1.68,1.68,0,0,1,1.6-1.11m0-6h0a7.63,7.63,0,0,0-7.22,5L36,153.87l-4.8,1.2a7.71,7.71,0,0,0-2.93,13.51l3.87,3.08-.34,4.92a7.7,7.7,0,0,0,11.94,7l4.12-2.72,4.58,1.85a7.71,7.71,0,0,0,9-2.49,7.63,7.63,0,0,0,1.28-6.72l-1.32-4.76,3.18-3.79A7.71,7.71,0,0,0,59,152.26L54.05,152l-2.62-4.19a7.67,7.67,0,0,0-6.53-3.61Z" transform="translate(15.88 15.87)"/><path class="cls-8" d="M119.51,109.47a4.65,4.65,0,0,1-4-2.21l-3.46-5.52-6.51-.29a4.7,4.7,0,0,1-3.41-7.72l4.19-5-1.74-6.28a4.67,4.67,0,0,1,.78-4.1,4.68,4.68,0,0,1,5.52-1.52l6,2.43,5.43-3.59a4.67,4.67,0,0,1,2.6-.79,4.72,4.72,0,0,1,3.45,1.51,4.64,4.64,0,0,1,1.25,3.53l-.45,6.5,5.1,4.06a4.71,4.71,0,0,1-1.79,8.25l-6.32,1.58-2.28,6.11A4.69,4.69,0,0,1,119.51,109.47Z" transform="translate(15.88 15.87)"/><path class="cls-7" d="M125,77.88a1.72,1.72,0,0,1,1.71,1.83l-.56,8.08,6.33,5a1.7,1.7,0,0,1-.65,3l-7.85,2-2.83,7.58a1.7,1.7,0,0,1-1.61,1.11,1.68,1.68,0,0,1-1.44-.8l-4.3-6.86-8.08-.35a1.71,1.71,0,0,1-1.24-2.81l5.2-6.2-2.16-7.8a1.71,1.71,0,0,1,1.64-2.17,1.63,1.63,0,0,1,.64.13l7.51,3L124,78.17a1.67,1.67,0,0,1,.94-.29m0-6a7.69,7.69,0,0,0-4.25,1.29l-4.12,2.72L112,74a7.71,7.71,0,0,0-9,2.49,7.66,7.66,0,0,0-1.28,6.72L103,88,99.85,91.8a7.71,7.71,0,0,0,5.58,12.65l4.93.22,2.62,4.19a7.72,7.72,0,0,0,13.76-1.39l1.73-4.63,4.79-1.2a7.71,7.71,0,0,0,2.93-13.51l-3.87-3.08.34-4.92A7.7,7.7,0,0,0,125,71.88Z" transform="translate(15.88 15.87)"/><text class="cls-9" transform="translate(45.29 69.93)">6</text><text class="cls-10" transform="translate(45.29 69.93)">6</text><text class="cls-11" transform="translate(45.29 69.93)">6</text><text class="cls-9" transform="translate(150.88 218.52) rotate(180)">6</text><text class="cls-10" transform="translate(150.88 218.52) rotate(180)">6</text><text class="cls-11" transform="translate(150.88 218.52) rotate(180)">6</text></g></g></g></svg>